<svg xmlns="http://www.w3.org/2000/svg" width="1400" height="1000" viewBox="0 0 1400 1000">
  <defs>
    <linearGradient id="appShell" x1="0" y1="0" x2="1" y2="1">
      <stop offset="0%" stop-color="#151923"/>
      <stop offset="100%" stop-color="#090B11"/>
    </linearGradient>
    <linearGradient id="panel" x1="0" y1="0" x2="1" y2="1">
      <stop offset="0%" stop-color="#1A202C"/>
      <stop offset="100%" stop-color="#10141D"/>
    </linearGradient>
    <linearGradient id="silver" x1="0" y1="0" x2="1" y2="1">
      <stop offset="0%" stop-color="#F7F8FA"/>
      <stop offset="45%" stop-color="#AEB8CA"/>
      <stop offset="100%" stop-color="#6F7A8E"/>
    </linearGradient>
    <linearGradient id="cyanLine" x1="0" y1="0" x2="1" y2="0">
      <stop offset="0%" stop-color="#AEB8CA"/>
      <stop offset="45%" stop-color="#6EE7F9"/>
      <stop offset="100%" stop-color="#F7F8FA"/>
    </linearGradient>
    <linearGradient id="chartFill" x1="0" y1="0" x2="0" y2="1">
      <stop offset="0%" stop-color="#6EE7F9" stop-opacity="0.28"/>
      <stop offset="100%" stop-color="#6EE7F9" stop-opacity="0"/>
    </linearGradient>
    <filter id="shadow" x="-8%" y="-8%" width="116%" height="116%">
      <feDropShadow dx="0" dy="22" stdDeviation="20" flood-color="#000000" flood-opacity="0.38"/>
    </filter>
    <filter id="softGlow" x="-60%" y="-60%" width="220%" height="220%">
      <feGaussianBlur stdDeviation="16" result="blur"/>
      <feMerge>
        <feMergeNode in="blur"/>
        <feMergeNode in="SourceGraphic"/>
      </feMerge>
    </filter>
  </defs>

  <rect width="1400" height="1000" rx="32" fill="url(#appShell)"/>
  <rect x="1.5" y="1.5" width="1397" height="997" rx="31" fill="none" stroke="#2D3443" stroke-width="3"/>
  <circle cx="1120" cy="90" r="230" fill="#6EE7F9" opacity="0.08"/>
  <circle cx="430" cy="330" r="270" fill="#AEB8CA" opacity="0.055"/>

  <rect x="32" y="32" width="1336" height="936" rx="28" fill="#0B0F17" opacity="0.82" filter="url(#shadow)"/>

  <rect x="32" y="32" width="230" height="936" rx="28" fill="#090D14"/>
  <rect x="262" y="32" width="1" height="936" fill="#2A3140"/>
  <circle cx="86" cy="88" r="22" fill="url(#silver)"/>
  <text x="86" y="98" text-anchor="middle" font-family="Segoe UI, Arial, sans-serif" font-size="26" font-weight="800" fill="#090B11">P</text>
  <text x="126" y="95" font-family="Segoe UI, Arial, sans-serif" font-size="25" font-weight="700" fill="#F7F8FA">Pulse</text>
  <text x="64" y="166" font-family="Segoe UI, Arial, sans-serif" font-size="13" font-weight="700" letter-spacing="2" fill="#6F7A8E">WORKSPACE</text>
  <rect x="56" y="194" width="164" height="44" rx="13" fill="#171D28"/>
  <rect x="74" y="210" width="88" height="12" rx="6" fill="#6EE7F9"/>
  <rect x="56" y="262" width="138" height="13" rx="6" fill="#323A4B"/>
  <rect x="56" y="312" width="112" height="13" rx="6" fill="#323A4B"/>
  <rect x="56" y="362" width="148" height="13" rx="6" fill="#323A4B"/>
  <rect x="56" y="412" width="94" height="13" rx="6" fill="#323A4B"/>
  <rect x="56" y="812" width="164" height="88" rx="18" fill="#121821" stroke="#2A3140"/>
  <text x="78" y="850" font-family="Segoe UI, Arial, sans-serif" font-size="18" font-weight="700" fill="#F7F8FA">Launch reel</text>
  <rect x="78" y="870" width="100" height="10" rx="5" fill="#6EE7F9" opacity="0.8"/>

  <rect x="302" y="66" width="346" height="42" rx="21" fill="#121821" stroke="#2A3140"/>
  <circle cx="330" cy="87" r="7" fill="#6EE7F9"/>
  <text x="350" y="93" font-family="Segoe UI, Arial, sans-serif" font-size="17" fill="#AAB2C2">Ask Pulse: what changed this week?</text>
  <rect x="1054" y="66" width="118" height="42" rx="21" fill="#171D28" stroke="#303848"/>
  <text x="1113" y="93" text-anchor="middle" font-family="Segoe UI, Arial, sans-serif" font-size="16" font-weight="700" fill="#F7F8FA">Share</text>
  <rect x="1190" y="66" width="132" height="42" rx="21" fill="#6EE7F9"/>
  <text x="1256" y="93" text-anchor="middle" font-family="Segoe UI, Arial, sans-serif" font-size="16" font-weight="800" fill="#090B11">Render</text>

  <g>
    <rect x="302" y="144" width="302" height="142" rx="20" fill="url(#panel)" stroke="#2A3140"/>
    <text x="330" y="183" font-family="Segoe UI, Arial, sans-serif" font-size="15" font-weight="700" letter-spacing="1.4" fill="#6F7A8E">SIGNUPS</text>
    <text x="330" y="246" font-family="Segoe UI, Arial, sans-serif" font-size="54" font-weight="800" fill="#F7F8FA">48,209</text>
    <rect x="330" y="260" width="92" height="10" rx="5" fill="#6EE7F9"/>
  </g>
  <g>
    <rect x="632" y="144" width="302" height="142" rx="20" fill="url(#panel)" stroke="#2A3140"/>
    <text x="660" y="183" font-family="Segoe UI, Arial, sans-serif" font-size="15" font-weight="700" letter-spacing="1.4" fill="#6F7A8E">VELOCITY</text>
    <text x="660" y="246" font-family="Segoe UI, Arial, sans-serif" font-size="54" font-weight="800" fill="#F7F8FA">+18.6%</text>
    <rect x="660" y="260" width="116" height="10" rx="5" fill="#AEB8CA"/>
  </g>
  <g>
    <rect x="962" y="144" width="360" height="142" rx="20" fill="url(#panel)" stroke="#2A3140"/>
    <text x="990" y="183" font-family="Segoe UI, Arial, sans-serif" font-size="15" font-weight="700" letter-spacing="1.4" fill="#6F7A8E">HEALTH</text>
    <text x="990" y="246" font-family="Segoe UI, Arial, sans-serif" font-size="54" font-weight="800" fill="#F7F8FA">99.98%</text>
    <rect x="990" y="260" width="82" height="10" rx="5" fill="#6EE7F9"/>
  </g>

  <rect x="302" y="324" width="690" height="402" rx="22" fill="url(#panel)" stroke="#2A3140"/>
  <text x="334" y="370" font-family="Segoe UI, Arial, sans-serif" font-size="24" font-weight="750" fill="#F7F8FA">Funnel lift</text>
  <rect x="810" y="344" width="132" height="36" rx="18" fill="#101722" stroke="#344052"/>
  <text x="876" y="367" text-anchor="middle" font-family="Segoe UI, Arial, sans-serif" font-size="15" font-weight="700" fill="#AAB2C2">Live</text>
  <g stroke="#252D3B" stroke-width="1">
    <line x1="334" y1="458" x2="940" y2="458"/>
    <line x1="334" y1="535" x2="940" y2="535"/>
    <line x1="334" y1="612" x2="940" y2="612"/>
    <line x1="334" y1="689" x2="940" y2="689"/>
  </g>
  <polygon points="334,660 406,620 478,634 550,560 622,575 694,492 766,512 838,418 940,382 940,690 334,690" fill="url(#chartFill)"/>
  <polyline points="334,660 406,620 478,634 550,560 622,575 694,492 766,512 838,418 940,382" fill="none" stroke="url(#cyanLine)" stroke-width="6" stroke-linecap="round" stroke-linejoin="round"/>
  <circle cx="838" cy="418" r="12" fill="#6EE7F9" filter="url(#softGlow)"/>
  <circle cx="940" cy="382" r="9" fill="#F7F8FA"/>

  <rect x="1022" y="324" width="300" height="402" rx="22" fill="url(#panel)" stroke="#2A3140"/>
  <text x="1054" y="370" font-family="Segoe UI, Arial, sans-serif" font-size="24" font-weight="750" fill="#F7F8FA">Next move</text>
  <rect x="1054" y="414" width="236" height="72" rx="18" fill="#111823" stroke="#334052"/>
  <circle cx="1086" cy="450" r="12" fill="#6EE7F9"/>
  <rect x="1110" y="436" width="112" height="12" rx="6" fill="#F7F8FA"/>
  <rect x="1110" y="458" width="150" height="10" rx="5" fill="#596477"/>
  <rect x="1054" y="510" width="236" height="72" rx="18" fill="#111823" stroke="#334052"/>
  <circle cx="1086" cy="546" r="12" fill="#AEB8CA"/>
  <rect x="1110" y="532" width="132" height="12" rx="6" fill="#F7F8FA"/>
  <rect x="1110" y="554" width="124" height="10" rx="5" fill="#596477"/>
  <rect x="1054" y="606" width="236" height="72" rx="18" fill="#111823" stroke="#334052"/>
  <circle cx="1086" cy="642" r="12" fill="#6EE7F9"/>
  <rect x="1110" y="628" width="96" height="12" rx="6" fill="#F7F8FA"/>
  <rect x="1110" y="650" width="152" height="10" rx="5" fill="#596477"/>

  <rect x="302" y="766" width="1020" height="156" rx="22" fill="url(#panel)" stroke="#2A3140"/>
  <text x="334" y="812" font-family="Segoe UI, Arial, sans-serif" font-size="22" font-weight="750" fill="#F7F8FA">Motion timeline</text>
  <rect x="334" y="842" width="916" height="10" rx="5" fill="#242C3A"/>
  <rect x="334" y="842" width="220" height="10" rx="5" fill="#6EE7F9"/>
  <rect x="572" y="842" width="166" height="10" rx="5" fill="#AEB8CA"/>
  <rect x="758" y="842" width="286" height="10" rx="5" fill="#6EE7F9" opacity="0.52"/>
  <rect x="1062" y="842" width="188" height="10" rx="5" fill="#F7F8FA" opacity="0.54"/>
  <g fill="#566174">
    <rect x="334" y="880" width="132" height="12" rx="6"/>
    <rect x="494" y="880" width="172" height="12" rx="6"/>
    <rect x="694" y="880" width="116" height="12" rx="6"/>
    <rect x="838" y="880" width="206" height="12" rx="6"/>
    <rect x="1072" y="880" width="144" height="12" rx="6"/>
  </g>
</svg>
